<?xml version="1.0" encoding="UTF-8" standalone="no" ?>
<!DOCTYPE svg PUBLIC "-//W3C//DTD SVG 1.1//EN" "http://www.w3.org/Graphics/SVG/1.1/DTD/svg11.dtd">
<svg xmlns="http://www.w3.org/2000/svg" xmlns:xlink="http://www.w3.org/1999/xlink" version="1.1" width="1200" height="150" viewBox="600.01 76.27 1200 150" xml:space="preserve">
<desc>Created with Fabric.js 5.2.4</desc>
<defs>
</defs>
<rect x="0" y="0" width="100%" height="100%" fill="transparent"></rect>
<g transform="matrix(1 0 0 1 600 75)" id="7eeb87ea-45a5-4828-a303-165bf93d4b72"  >
<rect style="stroke: none; stroke-width: 1; stroke-dasharray: none; stroke-linecap: butt; stroke-dashoffset: 0; stroke-linejoin: miter; stroke-miterlimit: 4; fill: rgb(255,255,255); fill-rule: nonzero; opacity: 1; visibility: hidden;" vector-effect="non-scaling-stroke"  x="-600" y="-75" rx="0" ry="0" width="1200" height="150" />
</g>
<g transform="matrix(Infinity NaN NaN Infinity 0 0)" id="a89b72ce-dfee-473e-af2e-9d2d30c89b18"  >
</g>
<g transform="matrix(0.41 0 0 0.41 1147.76 150.79)"  >
<path style="stroke: none; stroke-width: 1; stroke-dasharray: none; stroke-linecap: butt; stroke-dashoffset: 0; stroke-linejoin: miter; stroke-miterlimit: 4; fill: rgb(1,12,128); fill-rule: nonzero; opacity: 1;" vector-effect="non-scaling-stroke"  transform=" translate(-130.09, 17.07)" d="M 4.9 -34.75 L 6.65 -34.75 L 20.6 -17.25 L 34.55 -34.75 L 36.3 -34.75 L 36.3 0.05 L 32.2 0.05 L 32.2 -22.6 Q 32.2 -23.35 32.35 -25.2 L 32.35 -25.2 Q 29.95 -22.1 26.58 -18.18 Q 23.2 -14.25 20.55 -11.45 L 20.55 -11.45 L 18.55 -13.7 Q 12.5 -20.6 11.15 -22.15 L 11.15 -22.15 Q 10.7 -22.7 10.28 -23.3 Q 9.85 -23.9 9.45 -24.4 L 9.45 -24.4 L 8.85 -25.25 Q 9 -23.85 9 -22.6 L 9 -22.6 L 9 0.05 L 4.9 0.05 L 4.9 -34.75 Z M 61.25 1.1 Q 56.3 1.05 52.37 -1.23 Q 48.45 -3.5 46.22 -7.43 Q 44 -11.35 44 -16.3 L 44 -16.3 L 44 -17.75 Q 44 -22.5 46.27 -26.48 Q 48.55 -30.45 52.47 -32.77 Q 56.4 -35.1 61.05 -35.1 L 61.05 -35.1 Q 65.75 -35.1 69.65 -32.77 Q 73.55 -30.45 75.85 -26.48 Q 78.15 -22.5 78.15 -17.75 L 78.15 -17.75 L 78.15 -16.3 Q 78.15 -11.35 75.92 -7.35 Q 73.7 -3.35 69.85 -1.1 Q 66 1.15 61.25 1.1 L 61.25 1.1 Z M 61.1 -2.7 Q 64.75 -2.7 67.7 -4.48 Q 70.65 -6.25 72.35 -9.35 Q 74.05 -12.45 74.05 -16.3 L 74.05 -16.3 L 74.05 -17.75 Q 74.05 -21.4 72.3 -24.53 Q 70.55 -27.65 67.57 -29.48 Q 64.6 -31.3 61 -31.3 L 61 -31.3 Q 57.45 -31.3 54.5 -29.48 Q 51.55 -27.65 49.82 -24.53 Q 48.1 -21.4 48.1 -17.75 L 48.1 -17.75 L 48.1 -16.3 Q 48.1 -12.45 49.8 -9.35 Q 51.5 -6.25 54.47 -4.48 Q 57.45 -2.7 61.1 -2.7 L 61.1 -2.7 Z M 85.8 0.05 L 85.8 -34.3 L 89.9 -34.3 L 89.9 -19.75 L 106.65 -19.75 L 106.65 -34.3 L 110.75 -34.3 L 110.75 0.05 L 106.65 0.05 L 106.65 -15.85 L 89.9 -15.85 L 89.9 0.05 L 85.8 0.05 Z M 117.09 0.05 L 131.74 -35.25 L 133.39 -35.25 L 148.14 0.05 L 143.79 0.05 L 139.09 -11 L 126.04 -11 L 121.44 0.05 L 117.09 0.05 Z M 137.49 -14.7 L 133.24 -25.4 L 132.84 -26.7 L 132.54 -27.85 L 132.19 -26.75 L 131.79 -25.4 L 127.59 -14.7 L 137.49 -14.7 Z M 154.54 -34.75 L 156.29 -34.75 L 170.24 -17.25 L 184.19 -34.75 L 185.94 -34.75 L 185.94 0.05 L 181.84 0.05 L 181.84 -22.6 Q 181.84 -23.35 181.99 -25.2 L 181.99 -25.2 Q 179.59 -22.1 176.22 -18.18 Q 172.84 -14.25 170.19 -11.45 L 170.19 -11.45 L 168.19 -13.7 Q 162.14 -20.6 160.79 -22.15 L 160.79 -22.15 Q 160.34 -22.7 159.92 -23.3 Q 159.49 -23.9 159.09 -24.4 L 159.09 -24.4 L 158.49 -25.25 Q 158.64 -23.85 158.64 -22.6 L 158.64 -22.6 L 158.64 0.05 L 154.54 0.05 L 154.54 -34.75 Z M 195.69 0.05 L 195.69 -34.3 L 218.09 -34.3 L 218.09 -30.5 L 199.69 -30.5 L 199.69 -20.05 L 213.24 -20.05 L 213.24 -16.25 L 199.69 -16.25 L 199.69 -3.75 L 219.04 -3.75 L 219.04 0.05 L 195.69 0.05 Z M 239.39 -34.55 Q 244.04 -34.25 247.66 -31.95 Q 251.29 -29.65 253.29 -25.78 Q 255.29 -21.9 255.29 -17.1 L 255.29 -17.1 Q 255.29 -12 253.06 -8 Q 250.84 -4 246.89 -1.75 Q 242.94 0.5 237.89 0.5 L 237.89 0.5 L 235.39 0.5 Q 234.99 0.5 233.64 0.5 Q 232.29 0.5 228.84 0.2 L 228.84 0.2 L 226.04 -0.05 L 226.04 -34.6 L 239.39 -34.55 Z M 236.29 -3.25 Q 243.49 -3.25 247.34 -6.8 Q 251.19 -10.35 251.19 -16.95 L 251.19 -16.95 Q 251.19 -23.15 247.91 -26.8 Q 244.64 -30.45 238.84 -30.75 L 238.84 -30.75 L 230.14 -30.75 L 230.14 -3.5 Q 233.54 -3.25 236.29 -3.25 L 236.29 -3.25 Z" stroke-linecap="round" />
</g>
<g transform="matrix(0.25 0 0 0.25 1211.38 150.79)"  >
<polygon style="stroke: none; stroke-width: 1; stroke-dasharray: none; stroke-linecap: butt; stroke-dashoffset: 0; stroke-linejoin: miter; stroke-miterlimit: 4; fill: rgb(119,212,252); fill-rule: evenodd; opacity: 1;" vector-effect="non-scaling-stroke"  points="-25.78,-39.32 -8.77,48.91 -14.64,-10.14 14.38,-12.03 14.33,-21.92 25.78,-48.91 14.86,-30.93 " />
</g>
<g transform="matrix(0.25 0 0 0.25 1213.49 150.79)"  >
<polygon style="stroke: none; stroke-width: 1; stroke-dasharray: none; stroke-linecap: butt; stroke-dashoffset: 0; stroke-linejoin: miter; stroke-miterlimit: 4; fill: rgb(119,212,252); fill-rule: evenodd; opacity: 1;" vector-effect="non-scaling-stroke"  points="12.11,4.64 17.27,-48.9 8.53,-9.19 -11.08,-8.14 -9.51,12.32 -17.27,48.9 -5.22,9 " />
</g>
<g transform="matrix(0.25 0 0 0.25 1213.34 157.69)"  >
<polygon style="stroke: none; stroke-width: 1; stroke-dasharray: none; stroke-linecap: butt; stroke-dashoffset: 0; stroke-linejoin: miter; stroke-miterlimit: 4; fill: rgb(119,212,252); fill-rule: evenodd; opacity: 1;" vector-effect="non-scaling-stroke"  points="16.13,-10.59 16.67,-21.04 0.7,-17.29 0.66,-5.49 -16.67,21.04 5.01,-6.57 " />
</g>
<g transform="matrix(0.25 0 0 0.25 1220.08 151.73)"  >
<polygon style="stroke: none; stroke-width: 1; stroke-dasharray: none; stroke-linecap: butt; stroke-dashoffset: 0; stroke-linejoin: miter; stroke-miterlimit: 4; fill: rgb(119,212,252); fill-rule: evenodd; opacity: 1;" vector-effect="non-scaling-stroke"  points="-8.17,8.63 6.67,3.9 8.18,-8.63 -7.72,-6.54 " />
</g>
<g transform="matrix(0.25 0 0 0.25 1220.26 144.05)"  >
<polygon style="stroke: none; stroke-width: 1; stroke-dasharray: none; stroke-linecap: butt; stroke-dashoffset: 0; stroke-linejoin: miter; stroke-miterlimit: 4; fill: rgb(119,212,252); fill-rule: evenodd; opacity: 1;" vector-effect="non-scaling-stroke"  points="-2.52,21.75 8.46,20.33 10.05,10.06 1.97,9.68 -10.04,-21.75 -1.61,9.22 " />
</g>
<g transform="matrix(0.25 0 0 0.25 1220.76 142.41)"  >
<polygon style="stroke: none; stroke-width: 1; stroke-dasharray: none; stroke-linecap: butt; stroke-dashoffset: 0; stroke-linejoin: miter; stroke-miterlimit: 4; fill: rgb(119,212,252); fill-rule: evenodd; opacity: 1;" vector-effect="non-scaling-stroke"  points="10.8,15.15 12.06,5.64 2.52,2.95 -12.06,-15.15 2.42,7.29 2,14.29 " />
</g>
<g transform="matrix(0.41 0 0 0.41 1266.72 150.78)"  >
<path style="stroke: none; stroke-width: 1; stroke-dasharray: none; stroke-linecap: butt; stroke-dashoffset: 0; stroke-linejoin: miter; stroke-miterlimit: 4; fill: rgb(1,12,128); fill-rule: nonzero; opacity: 1;" vector-effect="non-scaling-stroke"  transform=" translate(-91.77, 17.1)" d="M 14.15 1.05 Q 11.15 1.05 8.5 -0.1 Q 5.85 -1.25 4.03 -3.3 Q 2.2 -5.35 1.65 -7.95 L 1.65 -7.95 L 5.35 -9.5 Q 6.15 -6.35 8.7 -4.55 Q 11.25 -2.75 14.15 -2.75 L 14.15 -2.75 Q 17.25 -2.75 19.4 -4.67 Q 21.55 -6.6 21.55 -9.7 L 21.55 -9.7 Q 21.55 -11.85 20.3 -13.25 Q 19.05 -14.65 15.9 -16.15 L 15.9 -16.15 Q 11.9 -18.1 9.83 -19.33 Q 7.75 -20.55 6.38 -22.38 Q 5 -24.2 5 -26.75 L 5 -26.75 Q 5 -29.2 6.33 -31.13 Q 7.65 -33.05 9.88 -34.13 Q 12.1 -35.2 14.65 -35.2 L 14.65 -35.2 Q 16.8 -35.2 18.68 -34.33 Q 20.55 -33.45 21.68 -32 Q 22.8 -30.55 22.8 -28.9 L 22.8 -28.9 Q 22.8 -28.65 22.7 -28.05 L 22.7 -28.05 L 18.8 -28.3 Q 19 -29.1 18.38 -29.83 Q 17.75 -30.55 16.65 -30.98 Q 15.55 -31.4 14.55 -31.4 L 14.55 -31.4 Q 12.35 -31.4 10.73 -30.08 Q 9.1 -28.75 9.1 -26.9 L 9.1 -26.9 Q 9.1 -25.4 10.18 -24.2 Q 11.25 -23 12.7 -22.13 Q 14.15 -21.25 16.45 -20.1 L 16.45 -20.1 L 18.25 -19.2 Q 22.2 -17.05 23.93 -14.9 Q 25.65 -12.75 25.65 -9.65 L 25.65 -9.65 Q 25.65 -6.55 24.08 -4.1 Q 22.5 -1.65 19.85 -0.3 Q 17.2 1.05 14.15 1.05 L 14.15 1.05 Z M 32.7 0.05 L 32.7 -34.3 L 36.8 -34.3 L 36.8 -19.75 L 53.55 -19.75 L 53.55 -34.3 L 57.65 -34.3 L 57.65 0.05 L 53.55 0.05 L 53.55 -15.85 L 36.8 -15.85 L 36.8 0.05 L 32.7 0.05 Z M 64 0.05 L 78.65 -35.25 L 80.3 -35.25 L 95.05 0.05 L 90.7 0.05 L 86 -11 L 72.95 -11 L 68.34 0.05 L 64 0.05 Z M 84.4 -14.7 L 80.15 -25.4 L 79.75 -26.7 L 79.45 -27.85 L 79.09 -26.75 L 78.7 -25.4 L 74.5 -14.7 L 84.4 -14.7 Z M 101.44 -34.75 L 103.19 -34.75 L 117.14 -17.25 L 131.09 -34.75 L 132.84 -34.75 L 132.84 0.05 L 128.74 0.05 L 128.74 -22.6 Q 128.74 -23.35 128.89 -25.2 L 128.89 -25.2 Q 126.49 -22.1 123.12 -18.18 Q 119.74 -14.25 117.09 -11.45 L 117.09 -11.45 L 115.09 -13.7 Q 109.04 -20.6 107.69 -22.15 L 107.69 -22.15 Q 107.24 -22.7 106.82 -23.3 Q 106.39 -23.9 105.99 -24.4 L 105.99 -24.4 L 105.39 -25.25 Q 105.54 -23.85 105.54 -22.6 L 105.54 -22.6 L 105.54 0.05 L 101.44 0.05 L 101.44 -34.75 Z M 142.59 0.05 L 142.59 -34.3 L 146.69 -34.3 L 146.69 0.05 L 142.59 0.05 Z M 180.09 -3.65 L 181.89 -0.5 Q 180.99 0.5 178.99 0.5 L 178.99 0.5 Q 176.39 0.5 174.79 -1.6 L 174.79 -1.6 L 168.99 -9.55 Q 168.04 -10.8 167.31 -11.55 Q 166.59 -12.3 165.36 -12.83 Q 164.14 -13.35 162.34 -13.4 L 162.34 -13.4 L 162.34 -17.25 L 167.14 -17.25 Q 170.09 -17.25 171.79 -18.98 Q 173.49 -20.7 173.49 -23.7 L 173.49 -23.7 Q 173.49 -26.7 171.86 -28.6 Q 170.24 -30.5 167.69 -30.5 L 167.69 -30.5 L 160.49 -30.5 L 160.49 0.05 L 156.39 0.05 L 156.39 -34.3 L 167.89 -34.3 Q 170.59 -34.3 172.81 -32.9 Q 175.04 -31.5 176.31 -29.18 Q 177.59 -26.85 177.59 -24.2 L 177.59 -24.2 Q 177.59 -21 175.89 -18.45 Q 174.19 -15.9 171.74 -15.2 L 171.74 -15.2 Q 170.54 -14.85 167.74 -14.85 L 167.74 -14.85 Q 169.19 -14.45 169.86 -14.03 Q 170.54 -13.6 171.34 -12.6 L 171.34 -12.6 L 173.19 -10.1 Q 177.09 -4.85 177.59 -4.2 L 177.59 -4.2 Q 178.04 -3.65 178.36 -3.43 Q 178.69 -3.2 179.04 -3.2 L 179.04 -3.2 Q 179.64 -3.2 180.09 -3.65 L 180.09 -3.65 Z" stroke-linecap="round" />
</g>
<g transform="matrix(0.53 0 0 0.53 1200.17 149.18)"  >
<rect style="stroke: none; stroke-width: 1; stroke-dasharray: none; stroke-linecap: butt; stroke-dashoffset: 0; stroke-linejoin: miter; stroke-miterlimit: 4; fill: none; fill-rule: nonzero; opacity: 1;" vector-effect="non-scaling-stroke"  x="-197.76" y="-23.08" rx="0" ry="0" width="395.52" height="46.16" />
</g>
</svg>